<svg width="788" height="1566" viewBox="0 0 788 1566" xmlns="http://www.w3.org/2000/svg" xmlns:xlink="http://www.w3.org/1999/xlink"><title>Slice</title><defs><rect id="a" x="762" y="321" width="22" height="186" rx="4.066"/><rect id="b" y="321" width="22" height="186" rx="4.066"/><rect id="c" x="762" y="565" width="22" height="80" rx="4.066"/><path d="M10 42.007C10 18.807 28.802 0 51.993 0h680.014C755.199 0 774 18.803 774 42.007v1477.986c0 23.2-18.802 42.007-41.993 42.007H51.993C28.801 1562 10 1543.197 10 1519.993V42.007zm22 7.992V1434C32 1449.47 44.538 1462 60.004 1462h663.992c15.469 0 28.004-12.535 28.004-27.999V50C752 34.53 739.462 22 723.996 22H60.004C44.535 22 32 34.535 32 49.999z" id="d"/><circle id="e" cx="672" cy="1513" r="11"/></defs><g transform="translate(2 2)" fill="none" fill-rule="evenodd"><use fill="#F2F2F2" xlink:href="#a"/><rect stroke="#979797" stroke-width="2" x="761" y="320" width="24" height="188" rx="4.066"/><use fill="#F2F2F2" xlink:href="#c"/><rect stroke="#979797" stroke-width="2" x="761" y="564" width="24" height="82" rx="4.066"/><g><use fill="#F2F2F2" xlink:href="#d"/><path stroke="#979797" stroke-width="2" d="M9 42.007C9 18.255 28.25-1 51.993-1h680.014C755.753-1 775 18.252 775 42.007v1477.986c0 23.752-19.25 43.007-42.993 43.007H51.993C28.247 1563 9 1543.748 9 1519.993V42.007zm24 7.992V1434C33 1448.915 45.088 1461 60.004 1461h663.992c14.916 0 27.004-12.087 27.004-26.999V50C751 35.085 738.912 23 723.996 23H60.004C45.088 23 33 35.087 33 49.999z"/></g><use fill="#979797" xlink:href="#e"/></g></svg>